HIERARCHY
ROOT root
{
	OFFSET	0	13.1	24.9
	CHANNELS 6  Xposition Yposition Zposition Xrotation Yrotation Zrotation
	JOINT spine_1
	{
		OFFSET	0	9.99999	0
		CHANNELS 3  Xrotation Yrotation Zrotation
		JOINT spine_2
		{
			OFFSET	0	112	-10
			CHANNELS 3  Xrotation Yrotation Zrotation
			JOINT spine_3
			{
				OFFSET	0	206.5	19.3
				CHANNELS 3  Xrotation Yrotation Zrotation
				JOINT spine_4
				{
					OFFSET	0	110.4	14.6
					CHANNELS 3  Xrotation Yrotation Zrotation
					JOINT neck_1
					{
						OFFSET	0	71.8	-50.3
						CHANNELS 3  Xrotation Yrotation Zrotation
						JOINT neck_2
						{
							OFFSET	0	86.2	-25.8
							CHANNELS 3  Xrotation Yrotation Zrotation
							JOINT head_ee
							{
								OFFSET	0	179.8	-8.7
								CHANNELS 3  Xrotation Yrotation Zrotation
								End Site
								{
									OFFSET	1	0	0
								}
							}
						}
					}
					JOINT left_clavicle
					{
						OFFSET	-43.2	22.4	-70.8
						CHANNELS 3  Xrotation Yrotation Zrotation
						JOINT left_shoulder
						{
							OFFSET	-93.9	-5.79999	48.7
							CHANNELS 3  Xrotation Yrotation Zrotation
							JOINT left_elbow
							{
								OFFSET	-291.4	-30.8	15.2
								CHANNELS 3  Xrotation Yrotation Zrotation
								JOINT left_lowarm_twist
								{
									OFFSET	-110.7	-3.89999	13.6
									CHANNELS 3  Xrotation Yrotation Zrotation
									JOINT left_hand
									{
										OFFSET	-110.7	-3.89999	13.6
										CHANNELS 3  Xrotation Yrotation Zrotation
										JOINT left_ee
										{
											OFFSET	-80.8	-5.10001	12.1
											CHANNELS 3  Xrotation Yrotation Zrotation
											End Site
											{
												OFFSET	1	0	0
											}
										}
									}
								}
							}
						}
					}
					JOINT right_clavicle
					{
						OFFSET	43.2	22.4	-70.8
						CHANNELS 3  Xrotation Yrotation Zrotation
						JOINT right_shoulder
						{
							OFFSET	93.9	-5.79999	48.7
							CHANNELS 3  Xrotation Yrotation Zrotation
							JOINT right_elbow
							{
								OFFSET	291.4	-30.8	15.2
								CHANNELS 3  Xrotation Yrotation Zrotation
								JOINT right_lowarm_twist
								{
									OFFSET	110.7	-3.89999	13.6
									CHANNELS 3  Xrotation Yrotation Zrotation
									JOINT right_hand
									{
										OFFSET	110.7	-3.89999	13.6
										CHANNELS 3  Xrotation Yrotation Zrotation
										JOINT right_ee
										{
											OFFSET	80.8	-5.10001	12.1
											CHANNELS 3  Xrotation Yrotation Zrotation
											End Site
											{
												OFFSET	1	0	0
											}
										}
									}
								}
							}
						}
					}
				}
			}
		}
	}
	JOINT left_hip
	{
		OFFSET	-82.8	-127.5	0.300001
		CHANNELS 3  Xrotation Yrotation Zrotation
		JOINT left_knee
		{
			OFFSET	-28.2	-396.7	2.2
			CHANNELS 3  Xrotation Yrotation Zrotation
			JOINT left_ankle
			{
				OFFSET	-11.7	-411.3	35.4
				CHANNELS 3  Xrotation Yrotation Zrotation
				JOINT left_toes
				{
					OFFSET	0	-60	-88.6
					CHANNELS 3  Xrotation Yrotation Zrotation
					JOINT left_foot_ee
					{
						OFFSET	-22.5	-16.5	-42.2
						CHANNELS 3  Xrotation Yrotation Zrotation
						End Site
						{
							OFFSET	1	0	0
						}
					}
				}
			}
		}
	}
	JOINT right_hip
	{
		OFFSET	82.8	-127.5	0.300001
		CHANNELS 3  Xrotation Yrotation Zrotation
		JOINT right_knee
		{
			OFFSET	28.2	-396.7	2.2
			CHANNELS 3  Xrotation Yrotation Zrotation
			JOINT right_ankle
			{
				OFFSET	11.7	-411.3	35.4
				CHANNELS 3  Xrotation Yrotation Zrotation
				JOINT right_toes
				{
					OFFSET	0	-60	-88.6
					CHANNELS 3  Xrotation Yrotation Zrotation
					JOINT right_foot_ee
					{
						OFFSET	22.5	-16.5	-42.2
						CHANNELS 3  Xrotation Yrotation Zrotation
						End Site
						{
							OFFSET	1	0	0
						}
					}
				}
			}
		}
	}
}
MOTION
Frames: 9
Frame Time: 0.02
2950.5249251 702.007 -1916.55120913 2.24316927009 20.9901499466 1.13409074907 -0.726004 -0.0355539 -0.56763 -0.725824 0.000637359 -0.568742 -0.725719 0.127195 -0.554337 -0.726146 0.0380525 -0.567468 3.66122 16.1967 1.78064 4.43402 26.6483 2.84585 -0.0 0.0 -0.0 4.70634 24.2403 9.17881 -9.71718 -57.719 49.5893 1.13019 -29.2419 0.294843 -12.5824 -0.6092 1.48573 -4.18149 8.66044 -24.1569 -0.0 0.0 -0.0 6.18051 19.2284 -11.0573 -15.2349 19.3575 -69.4651 0.332414 9.35106 -0.0271866 0.389186 -0.0135502 0.0478575 0.101982 -13.9087 -6.35032 0.0 0.0 0.0 7.83728 -2.50051 0.637704 -20.0566 0.294962 3.04802 32.0722 16.5304 -4.17662 -13.319 0.0 0.0 -0.0 0.0 -0.0 18.7762 25.9192 -6.97462 -62.0977 2.4307 -8.7524 30.453 -7.61477 3.93769 0.800273 -0.0 -0.0 0.0 0.0 0.0 
2946.14975598 702.007 -1912.47111547 2.2589865776 22.0115897011 1.09093654444 -0.726004 -0.0355539 -0.56763 -0.725824 0.000637359 -0.568742 -0.725719 0.127195 -0.554337 -0.726146 0.0380525 -0.567468 3.66122 16.1967 1.78064 4.43402 26.6483 2.84585 -0.0 0.0 -0.0 4.70634 24.2403 9.17881 -9.71718 -57.719 49.5893 1.13019 -29.2419 0.294843 -12.5824 -0.6092 1.48573 -4.18149 8.66044 -24.1569 -0.0 0.0 -0.0 6.18051 19.2284 -11.0573 -15.2349 19.3575 -69.4651 0.332414 9.35106 -0.0271866 0.389186 -0.0135502 0.0478575 0.101982 -13.9087 -6.35032 0.0 0.0 0.0 7.83728 -2.50051 0.637704 -20.0566 0.294962 3.04802 32.0722 16.5304 -4.17662 -13.319 0.0 0.0 -0.0 0.0 -0.0 18.7762 25.9192 -6.97462 -62.0977 2.4307 -8.7524 30.453 -7.61477 3.93769 0.800273 -0.0 -0.0 0.0 0.0 0.0 
2920.5748014 702.749 -1912.65811002 2.13904264543 23.8417427684 0.979161500714 -0.574618 -0.110763 -0.548567 -0.574453 -0.075632 -0.554504 -0.573599 0.0481853 -0.557559 -0.574031 -0.0404741 -0.558172 2.69029 15.7426 1.59217 3.3775 26.2393 2.77915 -0.0 0.0 -0.0 4.62716 24.4158 9.06496 -7.51985 -57.0729 50.1445 1.27856 -32.3471 0.370829 -14.1933 -0.710367 1.66535 -4.64806 7.72106 -28.1376 -0.0 0.0 -0.0 5.9987 19.0515 -10.6774 -15.5393 18.3816 -69.9727 0.260995 7.36702 -0.0168023 1.3443 -0.0454216 0.165682 0.25934 -13.9345 -7.35075 0.0 0.0 0.0 6.86366 0.00292972 0.848339 -20.5282 0.288986 3.12013 31.7663 16.03 -4.13749 -13.1069 0.0 0.0 -0.0 0.0 -0.0 22.2201 23.9773 -7.19915 -60.8793 2.29567 -8.6216 29.5014 -9.04246 3.83925 0.493489 -0.0 -0.0 0.0 0.0 0.0 
2893.92659926 706.878 -1917.68269042 2.64515362544 25.0874810589 0.567449374763 -0.568064 -0.2188 -0.631641 -0.56786 -0.178165 -0.644283 -0.565666 -0.0321876 -0.667687 -0.566262 -0.13723 -0.654225 1.61027 16.0293 1.59529 2.26582 26.9912 2.98657 -0.0 0.0 -0.0 5.08743 24.0884 9.71 -6.2645 -55.9405 49.9256 1.37823 -34.3209 0.425612 -14.8445 -0.752694 1.73715 -4.91101 10.3544 -28.3673 -0.0 0.0 -0.0 5.98052 18.2923 -10.6987 -17.075 18.1273 -68.9961 0.248021 7.00457 -0.0151796 1.67188 -0.0558992 0.20621 0.31918 -14.9742 -8.12529 0.0 0.0 0.0 2.3452 -0.777932 2.31602 -14.9901 0.321662 2.27137 33.9999 16.539 -4.37802 -14.017 0.0 0.0 -0.0 0.0 -0.0 27.3524 22.1725 -8.51719 -59.0149 2.09455 -8.41602 30.3076 -12.3585 3.94419 -0.287276 0.0 0.0 0.0 0.0 0.0 
2855.74209739 709.888 -1928.05261316 1.69107923894 26.0948432176 0.364532407552 -0.716488 -0.037859 -0.784456 -0.716146 0.0121332 -0.785275 -0.716104 0.186469 -0.762913 -0.716911 0.0636452 -0.782786 -1.28243 18.4853 1.54088 -0.626615 32.1251 3.7388 -0.0 0.0 -0.0 5.21741 24.1718 9.88623 -2.10124 -52.7096 50.7894 1.75876 -41.06 0.658668 -21.7356 -1.24952 2.46576 -5.70876 8.31575 -35.9713 -0.0 0.0 -0.0 6.01761 17.2149 -10.8617 -20.8824 16.5171 -67.786 0.340703 9.57999 -0.0285499 3.29388 -0.104353 0.407723 1.24424 -18.6436 -15.2194 0.0 0.0 0.0 -1.82986 2.20603 3.57564 -8.1759 0.249289 1.22893 30.7434 16.2052 -4.02969 -11.1408 0.0 0.0 -0.0 0.0 -0.0 28.1667 16.9133 -7.02333 -45.1761 0.828463 -6.70716 24.8847 -11.9041 3.33119 -3.38502 0.0 0.0 0.0 0.0 0.0 
2834.48617325 709.85 -1934.74152469 1.88288403065 27.460815817 0.269874083997 -0.675355 -0.0366858 -0.806929 -0.674993 0.0147339 -0.807628 -0.674986 0.193414 -0.784267 -0.675838 0.0671307 -0.804969 0.262881 19.5859 1.4239 1.19616 33.8299 3.29137 -0.0 0.0 -0.0 5.61038 24.0934 10.4354 -0.436172 -51.1686 51.0056 1.96243 -44.1855 0.796636 -24.041 -1.43493 2.69567 -5.80935 8.84659 -36.398 -0.0 0.0 -0.0 6.1598 15.9194 -11.262 -22.7491 15.4657 -67.0045 0.354215 9.95246 -0.0308419 3.8415 -0.119421 0.476052 1.61711 -19.7706 -17.9224 0.0 0.0 0.0 -4.6481 2.40152 4.6725 -6.18901 0.204895 0.927272 30.7674 17.5027 -4.04964 -10.4277 0.0 0.0 -0.0 0.0 -0.0 29.1865 15.1409 -7.08235 -41.1313 0.540304 -6.15591 22.8103 -14.582 3.10089 -3.96167 0.0 0.0 0.0 0.0 0.0 
2817.23745202 706.573 -1948.68699124 2.94660433409 27.8478994911 -0.298329985987 -0.99654 -0.143191 -0.86889 -0.996124 -0.0876131 -0.876239 -0.994444 0.113687 -0.87324 -0.995508 -0.0256466 -0.880235 -0.922922 20.3819 3.06502 -0.126017 34.2741 5.44281 -0.0 0.0 -0.0 5.52299 24.173 10.3095 0.809943 -50.3843 51.066 2.06998 -45.7133 0.872629 -25.9091 -1.59189 2.87644 -5.92219 8.36615 -37.6954 -0.0 0.0 -0.0 6.07104 16.0589 -11.0612 -23.1796 14.7202 -67.3035 0.361448 10.1515 -0.0321043 4.44523 -0.135274 0.551543 1.93518 -20.1729 -20.063 0.0 0.0 0.0 -7.43375 2.87223 5.51693 -5.98174 0.199661 0.895894 32.4097 18.162 -4.23663 -9.42693 0.0 0.0 -0.0 0.0 -0.0 31.0964 14.9114 -7.70897 -38.0506 0.34743 -5.72344 22.6203 -13.9233 3.07325 -3.94139 0.0 0.0 0.0 0.0 0.0 
2802.00271383 704.264 -1968.25253016 3.64758147793 27.4501711482 -0.280925999062 -1.10754 -0.0739454 -0.897982 -1.10709 -0.016657 -0.900867 -1.1065 0.190114 -0.880738 -1.10758 0.0486374 -0.899707 -1.09995 20.3283 1.28706 -0.237221 35.6347 3.57412 -0.0 0.0 -0.0 5.8293 24.0072 10.7458 2.89494 -48.4623 51.9856 2.1741 -47.1167 0.94805 -26.9209 -1.67935 2.9722 -5.6763 8.23582 -35.7657 -0.0 0.0 -0.0 6.25414 14.6389 -11.5509 -23.8134 14.3407 -66.484 0.348375 9.79156 -0.0298405 4.09936 -0.12629 0.508275 2.09784 -20.6408 -21.2382 0.0 0.0 0.0 -10.1787 3.06139 5.39242 -4.97745 0.172697 0.74413 32.4477 18.8583 -4.25216 -8.6661 0.0 0.0 -0.0 0.0 -0.0 31.7427 11.5754 -8.31089 -34.2204 0.140584 -5.17258 22.9522 -16.3532 3.13267 -3.81655 0.0 0.0 0.0 0.0 0.0 
2803.1757323 704.264 -1969.71806605 3.6402130325 27.2263670115 -0.264881265272 -1.10754 -0.0739454 -0.897982 -1.10709 -0.016657 -0.900867 -1.1065 0.190114 -0.880738 -1.10758 0.0486374 -0.899707 -1.09995 20.3283 1.28706 -0.237221 35.6347 3.57412 -0.0 0.0 -0.0 5.8293 24.0072 10.7458 2.89494 -48.4623 51.9856 2.1741 -47.1167 0.94805 -26.9209 -1.67935 2.9722 -5.6763 8.23582 -35.7657 -0.0 0.0 -0.0 6.25414 14.6389 -11.5509 -23.8134 14.3407 -66.484 0.348375 9.79156 -0.0298405 4.09936 -0.12629 0.508275 2.09784 -20.6408 -21.2382 0.0 0.0 0.0 -10.1787 3.06139 5.39242 -4.97745 0.172697 0.74413 32.4477 18.8583 -4.25216 -8.6661 0.0 0.0 -0.0 0.0 -0.0 31.7427 11.5754 -8.31089 -34.2204 0.140584 -5.17258 22.9522 -16.3532 3.13267 -3.81655 0.0 0.0 0.0 0.0 0.0 
